<svg width="268" height="215" viewBox="0 0 268 215" fill="none" xmlns="http://www.w3.org/2000/svg">
<g clip-path="url(#clip0_719_2998)">
<path d="M24.701 18.7303C23.6582 15.2264 22.6997 11.1177 24.7417 7.8503C28.4802 1.86815 36.9655 -2.31122 43.4512 1.77024C51.611 6.90526 52.138 19.1022 44.6655 25.0127C42.0007 27.0923 42.7095 32.9859 42.9082 36.0882C49.8597 36.4001 50.265 39.4798 52.2025 45.284C53.786 50.0279 58.1705 52.6382 62.1307 55.1347C63.0965 55.7572 65.2517 57.1936 66.2037 57.669C69.2357 59.7503 74.051 62.4464 76.7042 64.4748C82.5822 68.392 90.2435 74.1856 97.0562 75.6275C101.821 76.3944 109.848 76.5635 114.575 75.6255C120.942 74.4917 133.837 73.317 138.473 69.1778C142.777 65.3348 127.077 56.891 124.552 54.9027L122.652 56.2407C114.036 62.2188 89.145 64.3211 78.994 62.4048C73.566 60.578 71.9702 61.9137 67.9797 56.4658C67.5982 55.8329 66.9307 54.7435 66.6662 54.0692C62.4437 43.3006 58.338 32.4156 54.8315 21.3832C53.798 18.1317 53.9645 16.2941 55.072 13.1794C56.5537 11.9313 58.0007 11.1775 59.8812 10.7089C65.3592 9.34369 71.4107 9.31417 77.0147 8.64948C83.559 7.87352 90.0755 7.02083 96.6362 6.35767C99.5002 6.06822 102.438 5.63192 105.312 5.60618C107.93 5.58296 110.492 6.04778 112.454 7.9356C113.275 8.7257 113.921 9.69042 114.422 10.7144C116.277 14.5057 117.551 18.7911 118.999 22.7703C120.906 28.0113 122.945 33.2074 124.889 38.4353C125.752 40.7579 126.514 44.1399 128.021 46.091C129.389 47.8633 134.669 49.6418 136.91 51.0201C139.615 52.6836 142.281 54.7294 144.54 56.9735C153.011 65.3898 151.145 76.7896 151.235 87.744C151.244 88.8495 151.073 91.4712 151.566 92.4495C151.874 93.0607 156.943 93.1422 159.712 98.2967C164.085 106.435 158.526 118.986 166.001 126.269C167.82 128.041 170.377 129.396 172.957 129.327C174.459 129.286 175.83 128.72 176.85 127.592C180.025 124.084 179.24 118.229 178.986 113.869C174.67 110.951 172.568 106.705 172.251 101.516C171.554 90.1327 172.681 77.4886 177.896 67.2339C182.286 58.6022 191.049 53.7291 197.095 46.5339C202.341 40.3537 202.06 34.6425 201.322 26.9931C200.299 26.8617 199.274 26.8044 198.245 26.7647C189.849 26.4433 165.105 25.5452 159.57 30.8861C157.054 33.3152 157.134 38.5302 157.044 41.8125C156.947 45.308 156.456 52.0593 159.011 54.6928C161.725 57.4906 168.211 59.2848 172.005 59.1583C173.666 59.1028 175.43 58.5242 177.059 58.5895C177.722 58.616 177.83 58.8179 178.246 59.2843C181.041 68.0442 156.82 61.4219 154.961 56.0393C152.46 48.7959 150.712 30.4591 158.883 26.3277C166.038 22.71 177.397 22.4471 185.456 22.4352C192.734 22.4249 200.92 22.4506 208.066 24.0457C210.904 24.644 213.288 28.9859 214.58 31.3436C215.205 31.5084 215.433 29.8833 216.587 29.6758C221.982 28.7048 225.595 30.1242 227.372 35.1985C232.955 34.261 239.397 34.1361 242.435 39.8061C242.842 39.8177 243.25 39.8341 243.657 39.8558C258.315 40.6469 267.99 52.6818 267.345 67.2597C266.79 81.5686 257.49 93.5932 245.55 100.596C233.637 107.584 224.412 112.283 216.83 124.482C207.355 139.728 207.528 160.345 194.427 172.973C189.136 178.073 181.55 179.318 174.48 178.868C174.287 179.289 174.087 179.707 173.881 180.122C170.791 186.326 165.34 193.681 160.189 198.261C139.028 217.077 102.8 222.52 83.1152 198.97C81.888 197.503 80.7605 195.953 79.7407 194.331C78.1872 191.833 76.2272 187.384 73.9882 185.76C73.674 185.532 70.164 184.058 69.284 183.611C69.0012 187.467 68.313 191.624 64.1315 192.872C59.071 194.383 54.8635 190.335 53.6072 185.67C52.5475 182.022 53.0777 176.684 57.4862 175.679C62.488 174.539 68.6595 178.806 72.7805 181.369C71.2 178.694 69.8742 175.157 68.7922 172.245C62.3567 154.92 51.2202 118.605 61.8802 102.139C59.0732 103.289 56.9887 103.427 54.0232 103.485C53.8722 106.04 53.295 108.995 53.1605 111.58C52.8937 115.049 52.939 118.317 52.9927 121.808C53.2252 136.917 55.869 152.679 53.3847 167.629C52.626 172.196 49.9722 176.036 46.1675 178.419C44.423 183.615 43.5045 189.908 37.408 192.36C26.712 196.662 17.667 184.881 14.2715 176.106C5.67373 153.888 13.168 131.544 21.0092 110.468C25.6285 98.0287 30.9702 79.7012 25.7035 66.8198C19.6617 64.8977 19.2997 62.3796 17.3862 56.7406C16.0932 52.9299 14.8815 48.8928 13.484 45.1233C11.3422 45.7501 4.55847 47.5027 2.90922 45.5596C2.91822 42.5483 10.27 41.8014 12.6242 41.4231C11.7775 40.1634 11.1057 39.0896 10.0417 38.0088C7.62998 35.5593 3.55823 33.6251 2.13198 30.4023C0.369475 26.4205 1.15472 24.1575 1.33122 20.131C1.38572 18.8902 -0.0472755 15.903 0.719975 14.4267C1.20272 13.4976 1.75098 13.2372 2.62948 12.9404C3.87648 13.0201 4.49048 13.9066 5.29323 14.8254C5.53623 15.5315 5.91797 16.978 6.59347 17.2677C6.81272 16.4894 6.38723 15.5176 6.12523 14.7124C5.39323 11.9108 5.17747 11.0594 8.07197 10.0699C9.54547 10.0495 10.0132 10.428 11.2105 11.2123C11.8077 12.8425 12.412 14.2286 13.1155 15.8151C12.8422 12.8231 11.4082 10.8045 13.5697 8.36484C17.915 7.96512 18.1487 11.1523 18.9605 14.6707C22.4722 15.6771 22.6542 15.9133 24.701 18.7303ZM241.037 46.5564C237.502 48.7947 231.417 48.86 227.4 48.2415C226.475 50.761 225.772 52.5902 223.092 53.828C221.305 54.6744 219.257 54.7624 217.406 54.0725C215.921 53.507 215.527 52.9526 214.667 51.6573C211.497 63.642 205.564 59.2618 197.843 64.066C193.923 66.5054 194.359 75.7797 194.538 79.7602C194.635 90.8837 196.89 109.476 183.34 113.825C183.48 117.41 183.365 122.326 182.534 125.92C182.36 126.672 181.267 128.676 181.516 129.112C187.909 127.573 194.997 118.505 196.772 112.219C198.367 106.57 196.004 106.907 200.492 101.303C201.089 94.9944 204.943 90.5864 208.786 85.6354C215.404 77.1101 221.307 66.6896 228.965 59.1737C234.275 53.9615 242.375 52.9579 247.615 59.0884C247.932 61.0287 247.897 61.6472 247.635 63.6297C252.505 66.3288 253.422 67.8022 250.432 73.1692C247.642 78.1765 243.955 85.0913 238.072 78.7852C234.42 85.0515 230.495 77.5545 225.907 85.8849C221.13 94.5571 218.833 102.891 208.927 106.475C208.047 107.957 207.264 109.423 206.057 110.647L205.933 110.775C204.155 112.586 201.595 113.204 199.948 115.261C198.233 117.405 197.259 120.311 195.807 122.66C191.393 129.805 183.785 133.773 175.496 133.768C170.953 133.766 166.371 132.443 163.081 129.14C154.341 120.366 160.541 106.071 155.195 98.1258C153.732 97.4256 152.945 97.122 151.408 96.6117C151.676 103.861 151.242 110.406 151.3 117.449L151.506 148.662C151.492 155.214 152.022 164.617 150.247 170.607C149.605 171.753 148.179 174.233 147.072 174.833C142.042 177.561 136.414 179.191 130.98 180.899C121.499 183.88 112.232 187.315 102.718 190.198C94.251 192.764 89.2607 191.127 80.9537 188.812C82.8225 191.352 84.5762 194.117 86.5662 196.498C103.274 216.495 134.223 212.58 153.258 198.308C158.721 194.212 162.935 189.193 166.738 183.55C168.036 181.658 169.375 179.119 170.773 177.444C159.086 172.893 153.078 159.835 157.223 147.92C159.751 140.672 168.325 135.709 175.64 138.809C186.801 143.538 183.82 158.95 179.872 167.643C178.859 169.873 177.829 172.397 176.941 174.68C179.206 174.334 181.733 174.184 183.876 173.749C188.391 172.831 192.94 168.716 195.59 165.012C199.258 159.886 201.457 152.207 203.414 146.212C206.521 136.695 208.946 128.629 214.499 120.117C217.643 115.262 221.625 111.015 226.252 107.578C234.992 100.981 244.807 97.4059 252.762 89.4261C267.83 74.3057 267.772 46.6581 242.45 43.7152C242.01 44.6067 241.507 45.7032 241.037 46.5564ZM98.6757 123.425C98.9727 134.684 98.7685 146.114 98.8682 157.414C98.9292 164.336 99.0272 172.004 98.5122 178.869C98.3502 181.029 97.551 182.535 96.335 184.041C94.6062 186.182 92.311 186.209 91.7917 186.915C93.3245 189.813 113.446 182.661 116.558 181.519C125.71 178.16 135.37 175.848 144.298 171.996C146.279 171.142 146.996 168.76 147.17 166.792C147.59 163.816 147.446 159.317 147.436 156.193L147.377 140.111L147.315 118.06C147.352 111.058 147.517 103.681 147.274 96.6915C146.441 96.7488 145.437 96.7142 144.777 97.1828C144.313 97.8477 144.518 98.898 144.587 99.7527C144.311 105.907 144.591 112.429 137.424 115.11C133.505 116.576 129.194 117.054 125.167 118.178C116.135 120.321 107.968 122.946 98.6757 123.425ZM75.7777 56.9907L78.0485 56.2846C85.1082 54.5951 92.225 53.1593 99.3855 51.9798C106.401 50.7733 113.05 49.5494 120.153 50.0663C121.15 50.1387 123.178 50.2913 123.983 49.6675C124.298 48.8575 124.03 47.6652 123.747 46.8458C119.905 35.7483 115.559 24.8133 111.547 13.7726C109.972 9.43832 108.43 9.3442 104.169 9.69622C91.8225 10.7907 79.551 12.2641 67.2247 13.5632C65.3982 13.7557 59.7045 14.1315 58.5325 15.4659C58.0732 16.7968 58.1362 18.6959 58.5142 20.0107C59.9442 24.9834 61.949 30.2673 63.7542 35.1359C65.8735 40.8513 67.8067 46.7466 70.2317 52.2965C71.5605 55.3378 72.9757 55.82 75.7777 56.9907ZM42.9045 61.672C46.77 78.6502 38.6195 96.3957 34.444 112.425C30.45 127.757 28.508 145.778 32.4277 161.321C34.1287 168.066 35.3842 172.443 42.007 175.642C42.2775 169.268 42.3115 165.354 41.509 158.974C39.2617 141.105 32.6142 124.477 38.8995 106.595C40.6802 101.529 43.4317 96.3215 47.389 92.6567C48.9127 91.271 50.4632 89.9162 52.04 88.5924L52.0507 88.1917C51.4157 87.8422 49.7792 86.9822 49.7285 85.9854C49.3552 78.659 48.275 68.1924 49.8262 61.2099C50.0995 59.98 52.8315 59.2202 53.7842 58.9512C59.5905 60.4564 64.7162 65.0017 69.6202 68.338C74.0967 71.3836 78.8002 74.3534 82.9942 77.7649C86.8455 80.8978 89.0945 84.6179 89.4665 89.652C89.935 95.992 89.9657 102.347 89.9737 108.701L90.0145 137.41C90.017 142.944 89.8552 150.069 90.222 155.506C90.3822 159.308 89.8707 181.529 90.9892 182.837C91.812 182.868 91.9582 182.719 92.599 182.169C94.6257 180.431 95.047 178.486 95.0475 175.884C95.051 159.108 95.0487 142.325 94.891 125.549C94.8497 121.16 93.2662 117.723 93.0927 113.468C93.046 112.11 94.2187 109.115 94.4467 107.608C95.059 103.561 93.8547 99.0994 97.0675 95.8761C98.0277 94.9127 100.158 93.7764 101.501 93.4049C107.667 91.699 113.987 90.5213 120.282 89.1796C125.52 88.0632 131.733 86.2377 137.023 85.9516C138.945 85.8479 141.526 86.8537 142.849 88.3206C144.884 90.5771 143.225 92.4243 145.906 93.307C146.453 93.1861 146.673 93.2177 146.993 92.7135C147.645 91.6874 147.361 74.4675 147.212 72.0987C147.122 70.5763 146.883 69.0665 146.497 67.592C144.401 59.8566 136.955 55.0842 130.158 51.9112C129.268 51.4961 128.078 50.8339 127.096 51.0227L126.908 51.413C129.775 54.9666 151.327 64.8561 140.646 72.6163C133.663 77.6895 109.034 81.0227 100.47 80.0754C96.6187 79.6608 92.8627 78.5987 89.3582 76.9332C82.8 73.8639 74.945 68.0609 68.8172 64.013C64.3965 61.0931 58.549 57.7719 54.5372 54.7417C53.3102 53.8285 52.2062 52.7578 51.2537 51.5564C47.988 47.4507 48.835 44.3228 45.873 40.7897C45.451 40.286 44.0787 40.0594 43.3995 39.963C44.2012 45.7471 47.4365 55.6563 43.9032 60.3873C43.5775 60.8211 43.2445 61.2493 42.9045 61.672ZM64.6327 104.731C58.0095 117.701 63.7025 144.156 67.987 157.671C69.0525 160.934 70.1467 164.188 71.2692 167.433C72.8502 171.704 76.2212 182.491 80.2532 184.071C82.5082 184.955 85.9915 185.713 88.3432 186.773C85.8547 181.74 86.4952 178.553 86.515 173.088L86.5417 157.747L86.2482 108.79C86.2292 101.609 86.6925 92.718 84.7577 85.8014C84.5017 84.8862 81.2332 81.3321 80.3645 80.7812C73.3587 76.3384 60.7837 65.3209 53.3312 62.8502C52.677 64.151 52.89 70.091 52.8932 71.7631C52.8987 74.4922 52.9775 77.7475 53.6025 80.4186C53.9715 81.9945 57.9415 84.2995 54.8842 85.6104C54.2657 85.8673 53.2197 85.6669 52.5865 85.5645L52.4525 85.8388C52.8405 86.6296 53.0005 86.8406 53.522 87.5287C56.5732 85.6972 59.1905 83.9434 62.9067 84.87C66.1132 85.6694 67.045 87.9971 67.7482 90.8645C70.704 89.3037 73.0052 88.2679 76.5452 89.1932C78.3492 89.6939 80.0012 91.2153 80.798 92.9065C82.473 96.4621 82.9975 101.43 81.8295 105.182C80.492 109.48 76.497 111.413 72.3465 109.86C69.2897 108.716 67.2682 106.453 64.6327 104.731ZM29.2615 65.1077C30.0297 68.7326 31.347 72.2665 31.5927 76.0053C33.5572 106 10.1617 131.833 15.0357 162.312C15.5632 165.611 16.0012 167.707 16.8735 171.567C18.7052 179.674 30.783 197.144 39.2017 185.701C40.0975 184.484 41.2495 180.91 41.8032 179.171C34.5122 177.701 31.7285 172.645 29.6257 166.064C24.902 151.279 25.906 134.751 28.8817 119.701C29.7807 115.287 31.087 110.025 32.3787 105.698C34.8367 97.4616 37.9487 89.0004 39.1517 80.461C40.0047 74.4039 39.6275 68.0026 39.41 61.9014C33.524 60.1311 33.622 56.1135 32.5165 50.6499C32.5327 50.116 32.2957 49.0203 32.1917 48.4495C31.856 46.3154 31.5315 44.1797 31.2187 42.0421C29.4242 42.3358 27.9435 42.5319 26.1337 42.7017C27.5005 46.3138 28.76 49.8495 29.7947 53.5736C31.1277 58.3723 31.7837 60.656 29.2615 65.1077ZM179.364 109.367C180.645 109.98 181.002 110.228 182.381 110.295C189.55 107.198 189.808 100.578 190.708 93.9409C192.337 82.8038 185.409 65.4912 198.395 59.1616C202.456 57.1817 208.143 58.6607 210.231 52.7068C212.389 46.5495 213.257 29.313 205.11 27.2702C207.524 46.1829 199.403 49.852 187.061 61.54C177.498 70.5965 175.401 88.1054 176.116 100.608C176.252 103.609 177.694 106.98 179.364 109.367ZM46.34 174.62C48.797 170.797 50.0967 165.251 50.3295 160.725C50.9767 148.144 49.528 135.474 49.242 122.906C49.038 113.953 47.9365 95.7702 59.4275 93.2338C61.061 93.6237 63.987 93.9669 64.691 92.0995C64.6007 90.9359 63.9372 89.6613 62.6362 89.7701L62.4517 90.3005C62.8052 91.1583 62.8525 91.3293 62.9997 92.2466C48.7147 90.2407 42.5835 103.329 40.6987 115.525C38.6685 128.66 42.7475 142.008 44.867 154.837C45.9152 161.015 46.0632 168.33 46.34 174.62ZM100.304 119.602C108.188 118.363 115.946 116.684 123.692 114.534C127.663 113.433 136.136 112.599 138.817 109.46C140.717 107.235 141.127 101.362 140.912 98.4932C140.908 98.4117 140.832 98.0991 140.81 98.0097C140.197 97.7925 140.131 97.8465 139.47 98.0024C136.787 98.4145 133.982 99.028 131.332 99.6649C122.082 101.887 112.74 103.676 103.627 106.417C97.4967 108.261 98.7117 110.672 98.7602 116.181C98.769 117.183 98.8397 118.225 98.8867 119.226C99.3967 119.725 99.436 119.569 100.304 119.602ZM208.639 102.579C209.733 102.145 210.504 101.869 211.515 101.235C219.885 93.6646 221.53 77.2037 232.477 77.8053C232.87 77.8272 233.262 77.8535 233.655 77.8843C235.307 76.1893 243.322 63.0016 244.372 60.6575C241.002 59.1048 240.037 58.7801 236.262 59.1079C234.18 59.9969 231.392 61.7709 229.942 63.6617C221.267 74.9795 212.362 86.6685 204.77 98.7405C203.692 100.454 207.471 102.068 208.639 102.579ZM39.1762 36.9593C38.6482 32.6394 38.4872 30.5429 39.3537 26.3088C36.1715 26.4791 33.996 25.7564 31.1462 24.4833C31.206 25.5717 32.006 28.0636 32.3152 29.3049C32.995 32.0545 33.6207 34.8177 34.1925 37.5922C35.5577 37.3964 37.8812 37.0035 39.1762 36.9593ZM23.8412 61.7552C31.5492 65.9896 23.1652 45.7536 22.7245 44.1772C22.3252 43.7866 22.438 43.7644 22.027 43.7563C20.472 44.0094 18.832 44.3042 17.279 44.5174C18.8525 48.4977 22.0202 59.3759 23.8412 61.7552ZM119.556 53.697C118.03 53.7319 116.558 53.7556 115.034 53.8762C107.821 54.3004 91.3487 57.1615 84.4902 59.117C86.1927 59.2043 87.8567 59.2986 89.5625 59.3034C98.3732 59.2512 111.539 57.2632 119.556 53.697ZM21.223 40.1758C20.1817 36.168 19.6915 32.647 20.6705 28.5302C20.8375 27.8274 21.2957 26.7012 20.763 26.2252C16.5 28.2284 12.2025 30.3753 7.50073 31.0183C9.61623 32.3701 12.3655 34.1187 13.8652 36.2187C15.1652 38.0164 15.4865 38.7528 16.2215 40.929C17.845 40.656 19.5925 40.3196 21.223 40.1758ZM24.7877 39.2176L30.6767 38.1936C28.9645 33.4068 28.0687 27.2891 26.1507 21.9278L25.8032 21.2926L25.4722 21.2631C25.2562 21.9255 25.2675 22.0151 25.3862 22.705C25.6052 26.4195 24.0592 30.7735 24.1315 34.5514C24.159 35.981 24.5267 37.7923 24.7877 39.2176ZM8.07873 27.4398C10.4292 26.5538 12.759 25.5795 15.0877 24.6306C16.7577 23.9506 19.5255 23.2205 20.9682 22.3366C21.438 20.2655 19.4455 18.8166 17.4185 18.9945C14.2092 19.4487 7.55198 21.6585 5.02923 23.8305C4.30573 24.4532 5.17922 27.41 5.47248 28.3124C5.94147 28.1668 7.76398 27.6336 8.07873 27.4398ZM171.048 172.847L172.004 173.289C173.536 172.541 176.093 164.819 176.847 163.176C180.102 156.088 181.399 141.193 169.516 142.095C161.189 144.295 158.859 153.229 160.868 160.766C162.334 166.268 166.467 169.904 171.048 172.847ZM59.031 179.724C58.3475 179.892 57.4232 180.029 57.1677 180.767C55.7667 184.81 58.7997 189.416 63.1102 188.995C68.1042 185.936 65.4505 179.868 59.031 179.724ZM28.879 8.41531C24.6352 16.9944 34.7295 25.1177 42.1747 21.6736C42.799 21.3191 43.0837 21.3146 43.291 20.7594C42.394 20.4778 41.0162 20.7036 39.9875 20.6519C36.0812 20.4553 32.872 18.4842 31.0895 14.9509C30.1075 13.004 29.7062 10.9734 29.396 8.84177C29.3945 8.83168 28.9745 8.46729 28.879 8.41531ZM240.06 75.9932C240.862 76.4487 242.207 77.3768 243.112 77.1083C244.862 74.4064 246.652 71.7303 248.48 69.0811C247.417 68.018 246.597 67.5486 245.35 66.754C243.652 69.7448 241.845 73.0864 240.06 75.9932ZM203.13 104.563C202.341 105.827 201.214 107.652 201.269 109.163L201.588 109.44C201.779 109.354 202.189 109.185 202.35 109.089C203.195 108.189 204.256 107.215 204.702 106.086C204.66 104.988 204.277 104.766 203.13 104.563ZM34.8195 41.4976C35.949 45.2918 36.6945 54.7635 38.3135 57.299C38.9907 57.723 39.3777 58.0571 40.1845 58.0288C41.0332 57.6054 41.052 57.6455 41.504 56.651C42.403 54.6731 40.2302 42.5882 39.5575 40.9237L39.2047 40.7143C37.8805 40.9631 36.114 41.3431 34.8195 41.4976ZM227.512 44.448C230.505 44.4599 235.05 44.7347 237.697 43.7124C238.48 42.5347 238.69 40.3905 237.095 39.7122C233.995 38.3954 230.54 39.366 227.302 38.7886C227.537 40.7791 227.515 42.4416 227.512 44.448ZM222.847 49.6693C223.745 46.4274 223.687 37.8897 222.67 34.5449C222.342 33.4595 216.644 33.8259 215.253 33.4812C217.161 40.5028 215.743 43.781 216.051 49.8192C218.766 50.3756 220.182 50.761 222.847 49.6693ZM44.6417 15.0828C47.2327 8.63611 42.759 3.75041 36.2145 4.34595C29.414 7.13767 34.787 18.9152 42.3187 16.5863C43.0495 16.1457 43.998 15.6125 44.6417 15.0828ZM135.73 89.9288C125.168 91.5466 113.761 94.628 103.249 96.9582C98.8295 97.9378 98.8502 100.574 98.417 104.511C99.7865 103.859 101.165 103.227 102.551 102.615C106.155 101.463 110.38 100.466 114.119 99.68C122.678 97.8798 132.292 94.9205 140.88 93.6855C140.015 90.7146 139.295 89.3358 135.73 89.9288ZM73.219 92.6297C69.4305 93.8473 68.035 94.9806 65.6092 98.1604C65.1185 98.8036 63.6915 100.195 63.5932 100.921C67.8175 102.156 67.0515 100.833 71.0057 104.554C77.638 109.92 79.369 103.286 78.438 97.6103C77.8895 94.2659 76.7492 92.4833 73.219 92.6297Z" fill="#568673"/>
<path d="M101.506 14.2412C103.171 14.1405 105.484 14.2599 106.843 15.3616C109.135 17.2187 116.642 37.3752 116.962 40.6024C117.085 41.851 116.855 43.4529 115.999 44.4242C115.185 45.3481 113.458 45.7854 112.284 46.0728C108.023 47.1155 103.455 47.4575 99.1233 48.1736C93.3098 49.1346 87.3335 50.5772 81.4655 50.9921C77.1858 51.088 75.4223 50.4251 73.488 46.4443C71.6733 42.71 70.4728 38.8249 69.117 34.909C68.02 31.4947 66.3533 28.1231 65.664 24.5895C64.9445 20.9019 65.2103 18.7761 69.2118 18.0342C72.6055 17.4051 75.9463 17.0493 79.335 16.6203C86.704 15.6359 94.0968 14.8425 101.506 14.2412ZM68.751 21.7114C70.3075 27.1041 72.2663 32.5102 74.2625 37.7499C75.4505 40.8684 76.216 45.8202 79.439 47.1592C85.3293 46.8188 92.7535 45.1051 98.716 44.2107C103.08 43.5559 109.177 42.8508 113.329 41.7635C112.513 38.3876 105.819 19.4633 103.977 18.1708L103.209 18.0221C95.095 18.5104 86.868 19.8236 78.779 20.6597C76.1865 20.9277 71.1818 21.7049 68.751 21.7114Z" fill="#568673"/>
<path d="M62.9997 92.2467C62.8525 91.3294 62.8052 91.1583 62.4517 90.3006L62.6362 89.7702C63.9372 89.6614 64.6007 90.936 64.691 92.0996C63.987 93.967 61.061 93.6238 59.4275 93.2339C60.476 93.1201 62.589 93.1221 63.2072 92.6106L62.9997 92.2467Z" fill="#568673"/>
<path d="M25.3862 22.7049C25.2675 22.0149 25.2562 21.9254 25.4722 21.2629L25.8032 21.2925L26.1507 21.9276L25.3862 22.7049Z" fill="#568673"/>
<path d="M8.07197 10.0698C7.18972 9.9608 7.05022 10.2548 6.33972 9.98099L6.42147 9.57017C7.97072 8.94081 10.1067 9.1861 11.6787 8.58904C12.508 8.27386 12.7245 7.99173 13.5697 8.3647C11.4082 10.8044 12.8422 12.8229 13.1155 15.815C12.412 14.2285 11.8077 12.8424 11.2105 11.2122C10.0132 10.4279 9.54547 10.0494 8.07197 10.0698Z" fill="#568673"/>
<path d="M6.12527 14.7124C6.38727 15.5176 6.81277 16.4894 6.59352 17.2677C5.91802 16.978 5.53627 15.5315 5.29327 14.8255L6.12527 14.7124Z" fill="#568673"/>
</g>
<defs>
<clipPath id="clip0_719_2998">
<rect width="268" height="215" fill="white"/>
</clipPath>
</defs>
</svg>
