<svg width="62" height="49" viewBox="0 0 62 49" fill="none" xmlns="http://www.w3.org/2000/svg">
<g clip-path="url(#clip0_734_3188)">
<path d="M42.4431 44.3832C37.0449 43.7751 33.7991 38.086 32.707 33.3145C31.3817 27.5243 33.2513 21.8912 36.388 17.0406C37.6903 15.0658 39.1702 13.2132 40.8107 11.5057C43.7481 8.42522 52.2931 1.03904 56.4182 0.181633C57.0981 0.0403161 57.8784 0.0446989 58.4702 0.452536C58.8797 0.734766 59.121 1.16782 59.203 1.6511C59.3007 2.22439 59.2369 2.78251 58.9651 3.29735C58.1889 4.76763 56.5673 6.08115 55.4298 7.30304C54.3126 8.49918 53.2822 9.77266 52.346 11.114C51.1237 12.871 49.8445 15.0766 49.3944 17.1824C48.3463 21.5579 52.203 22.4054 55.2461 24.0635C60.887 27.1784 62.8312 32.8749 61.5852 39.0232C60.308 45.3265 54.1533 50.0636 47.6433 48.7744C45.6632 48.3827 44.1616 47.1995 43.1034 45.4977C40.4853 48.5439 34.6594 48.9497 31.0658 47.9189C28.6889 47.2143 26.6917 46.6931 24.2051 46.6365C20.9756 46.563 18.1227 47.991 15.0491 48.3072C11.4378 48.7124 7.81451 47.6546 4.99644 45.3723C0.660805 41.8529 -0.404528 36.3411 0.175152 31.0612C0.934071 24.1478 3.86352 17.4631 8.25603 12.0747C11.7281 7.85867 16.0315 4.39452 20.901 1.89564C22.4901 1.09312 24.3141 0.321601 26.089 0.135852C28.3063 -0.102283 29.0345 2.07889 27.88 3.51425C26.6419 5.05357 24.502 6.36068 22.9823 7.76091C19.7275 10.7598 16.1613 14.5464 15.705 19.14C15.4646 22.3502 18.0166 23.1132 20.1993 24.5209C21.294 25.2258 22.2909 26.0704 23.1648 27.0328C28.1444 32.5884 27.5703 40.584 22.0195 45.5173C22.6399 45.3851 23.2836 45.3986 23.9125 45.3622C27.8963 45.1316 31.3817 47.3019 35.3556 47.1678C38.173 47.0727 40.4541 46.4221 42.4431 44.3832ZM42.4594 43.1184C42.5638 40.5118 43.3169 38.7521 45.2666 36.9681C46.274 36.0465 48.0745 34.9428 49.4656 35.1477C53.2334 35.7026 52.2409 39.6947 50.3075 41.5441C48.4243 43.2296 46.5085 44.1661 43.9609 44.3981C44.6287 45.7741 45.735 46.9102 47.2129 47.3498C52.6219 48.9572 58.3665 45.2159 60.0111 40.0453C61.0531 36.7686 60.9792 33.1918 59.4783 30.0755C58.4573 27.9854 56.8107 26.5173 54.8543 25.3174C52.304 23.7531 48.4121 22.874 48.0582 19.3452C47.6569 15.3361 50.8397 10.6639 53.3588 7.72889C53.9682 7.025 54.5946 6.33587 55.2373 5.66192C56.1247 4.73365 57.4757 3.64195 57.9557 2.47015C58.3238 1.57195 57.532 1.37029 56.8317 1.39962C54.9343 1.88742 52.7704 3.27706 51.1332 4.42721C42.0614 10.7988 30.9688 21.4308 34.0906 33.6968C35.1386 37.8143 37.9608 42.3916 42.4594 43.1184ZM13.4199 47.1158C16.8579 47.0302 19.7256 46.1753 22.1632 43.6247C24.2715 41.3984 25.4018 38.4292 25.3043 35.3722C25.2133 32.196 23.8321 29.3285 21.5186 27.1568C20.82 26.5058 20.059 25.9247 19.2464 25.4215C16.9718 24.0135 14.4535 22.9099 14.4652 19.7588C14.4868 13.9425 19.5231 8.9791 23.7203 5.49943C24.6407 4.73628 27.2139 3.04796 27.1788 1.80846C26.9223 1.31419 26.5415 1.39085 26.0385 1.41142C21.68 2.10506 15.7609 6.32212 12.5923 9.29369C10.8978 10.8834 9.35465 12.6256 7.98242 14.4978C4.25826 19.6212 2.0133 25.5007 1.3579 31.8049C0.539733 39.6751 4.82072 46.9237 13.4199 47.1158ZM43.7122 43.1433C44.1928 43.1056 44.8429 43.0442 45.3079 42.9026C47.242 42.374 49.2303 41.2569 50.3048 39.5187C51.0953 38.2417 50.961 36.3033 49.052 36.3991C47.3417 36.6802 45.9628 37.823 44.9548 39.1843C44.0233 40.4417 43.7284 41.6128 43.7122 43.1433Z" fill="#FDFCF8"/>
</g>
<defs>
<clipPath id="clip0_734_3188">
<rect width="62" height="49" fill="white"/>
</clipPath>
</defs>
</svg>
