<svg width="221" height="215" viewBox="0 0 221 215" fill="none" xmlns="http://www.w3.org/2000/svg">
<path d="M23.6055 72.3343C23.1321 62.4575 23.2799 52.5006 24.1152 42.658C24.3013 40.4635 24.2532 34.7659 25.4362 33.341C26.6569 31.8708 34.9464 31.484 36.9032 31.2767C40.5954 30.8684 44.266 30.2825 47.9018 29.5211C67.8045 25.4885 87.0067 18.6133 103.281 5.91216C104.613 4.87241 109.383 1.01177 110.785 0.707764C111.964 0.818726 122.633 9.16772 124.75 10.539C141.164 21.169 158.72 27.1553 177.918 30.3629C181.743 31.0019 193.324 31.8624 195.802 33.1759L195.949 33.2526C198.745 39.1691 198.152 66.812 198.02 74.7845C197.987 76.6584 197.709 79.9503 197.56 81.947C197.454 83.3443 197.092 85.2588 197.009 86.6741C196.76 88.5884 196.545 90.507 196.367 92.4291C194.073 105.781 192.155 118.902 187.218 131.566C186.344 133.809 185.751 136.263 184.837 138.505C183.717 141.326 182.468 143.132 181.624 146.168C185.991 146.973 191.612 147.848 194.391 151.758C197.405 155.998 194.731 160.841 194.638 165.378C197.683 165.678 200.583 166.451 203.733 166.728C208.748 167.17 213.448 167.003 218.461 166.944C219.059 166.937 220.057 167.106 220.499 167.542C220.895 168.24 220.964 168.993 220.764 169.772C220.132 172.236 208.854 183.863 206.487 187.236C208.732 191.4 211.964 195.139 214.538 199.111C215.184 200.105 220.359 206.355 217.34 206.874C208.316 208.423 196.849 208.186 187.838 206.797C185.967 206.619 184.129 206.223 182.306 205.786C177.289 204.926 170.917 203.182 165.996 201.629C164.468 201.147 162.873 199.834 161.989 198.456L161.898 198.316C161.88 198.287 161.863 198.26 161.845 198.23C161.534 194.597 162.963 189.493 163.357 185.418C161.41 185.281 158.547 184.703 156.556 184.359L156.38 184.463C155.23 185.15 154.118 186.321 153.175 187.289C151.031 189.491 148.948 191.537 146.603 193.521C143.136 196.419 139.526 199.142 135.786 201.676C131.2 204.779 113.964 215.366 108.99 213.676C97.3955 209.741 84.8942 201.956 75.6228 193.866C72.771 191.391 67.7007 185.745 65.1242 184.545C62.4722 184.861 60.6465 185.116 58.0534 185.681L58.0777 185.92C58.4186 189.1 60.9319 196.719 58.8474 199.371C55.7516 203.311 36.7608 206.35 31.0523 207.134C28.9158 207.13 26.2299 207.683 24.1777 207.717C18.638 207.814 11.0469 208.156 5.69283 207.279C2.92571 206.724 2.65339 206.05 4.04041 203.355C4.773 201.931 6.11784 200.68 6.96077 199.336C9.50829 195.277 12.8702 191.291 15.2859 187.192C13.1903 185.478 9.60755 180.408 7.51976 178.167C5.6392 176.007 3.54505 174.003 1.75429 171.766C0.978617 170.799 -0.179111 169.289 0.499144 168.025C0.914085 167.251 1.76774 167.044 2.56632 166.981C4.90316 166.797 7.27307 167.101 9.61809 167.079C15.4521 167.16 21.4272 166.749 27.0566 165.145C26.4268 161.437 24.4722 155.596 26.7093 151.978C29.0572 148.181 36.1389 146.829 40.2691 145.866C34.8306 133.529 30.5929 121.192 28.0728 107.918C27.2013 103.329 26.1339 99.121 25.5229 94.4585L25.0307 91.0507C25.0372 90.7047 24.7818 88.8464 24.7294 88.3898C24.6244 85.8789 24.2653 83.121 24.1203 80.5732C23.9658 77.8604 23.8694 75.0227 23.6055 72.3343ZM43.956 144.91C46.8569 143.893 50.9649 143.178 54.0336 142.523C68.554 139.425 82.6777 138.264 97.4566 137.395C103.33 137.229 109.721 137.085 115.593 137.172C117.761 137.205 119.929 137.256 122.096 137.326C122.539 137.343 124.153 137.516 124.352 137.507C125.529 137.919 126.256 138.318 126.029 139.773C125.831 140.162 125.387 140.685 124.924 140.718C119.818 141.091 114.461 141.056 109.329 141.051C94.7796 141.034 80.4343 141.897 66.0735 144.301C60.6033 145.217 55.2241 146.343 49.8253 147.631C43.9317 148.883 37.9801 150.169 32.3218 152.325C29.752 153.336 29.4878 155.149 29.7134 157.661C29.9466 160.257 30.5933 163.495 31.1137 166.005C31.7545 169.096 33.5963 186.12 34.9466 187.531C36.6896 187.838 40.8501 185.867 42.685 185.312C47.4561 183.865 62.2891 179.837 66.3764 180.89C69.4467 181.683 72.4785 186.003 74.869 188.12C83.7302 195.965 93.4875 202.666 104.259 207.597C106.328 208.545 108.735 209.976 111.068 209.783C115.901 209.385 130.518 200.596 134.77 197.619C139.164 194.544 148.919 187.322 151.803 183.101C148.098 182.906 145.818 182.141 141.899 182.341C139.564 184.645 137.277 186.823 134.665 188.825C130.541 191.986 115.463 201.922 110.876 201.915C105.705 201.906 87.1848 189.696 83.3294 185.683C82.2112 184.517 81.1445 182.981 81.2381 181.286C81.279 180.544 81.6162 179.582 82.1907 179.091C86.5362 175.387 130.028 176.662 137.693 177.796C143.957 178.726 150.251 179.282 156.503 180.326C160.641 181.017 164.693 182.183 168.82 182.835C171.348 183.346 173.848 184.179 176.391 184.763C178.836 185.181 184.477 187 186.887 187.885C188.14 181.797 188.83 175.618 189.825 169.491C190.485 165.432 192.266 158.741 191.899 154.852C191.83 154.117 191.488 153.756 190.93 153.317C187.474 150.597 174.426 148.249 169.698 147.143C163.143 145.609 147.706 142.028 141.634 143.018C139.744 143.327 138.021 144.069 136.449 145.159C130.924 148.989 121.765 160.241 117.066 165.655C115.308 167.68 113.55 170.149 111.388 171.728C110.495 172.379 109.648 172.718 108.55 172.841C106.257 173.096 104.334 172.361 102.577 170.917C101.194 169.781 94.6947 163.16 93.8201 161.884C93.3066 161.149 92.9936 160.292 92.9121 159.399C92.6138 156.261 95.2821 153.438 98.3444 153.188C101.98 152.892 104.608 156.348 107.111 158.497C111.136 155.115 114.722 149.509 118.995 146.123C120.291 145.095 121.73 143.039 123.471 145.03C123.86 146.081 123.087 147.275 122.354 148.009C120.022 150.277 118.079 152.497 115.823 154.857C114.12 156.639 109.741 162.37 107.722 162.987C104.559 163.074 101.722 158.409 99.4218 156.868C97.9903 155.909 96.9899 158.416 96.6294 159.265C97.452 160.32 99.1366 162.22 100.134 163.03C102.517 164.909 106.375 171.446 109.814 167.903C118.326 159.133 125.837 148.066 135.973 141.126C140.776 137.838 148.088 139.296 153.465 140.114C161.612 141.353 169.988 142.723 177.963 144.963C180.052 138.491 183.151 132.411 185.156 125.915C194.009 97.2351 195.031 71.8764 193.568 42.1318C193.551 40.3335 193.177 38.6456 193.122 36.8884C193.002 36.5509 192.904 35.9719 192.513 35.9427C164.468 33.8538 136.806 25.328 114.402 7.90353C113.818 7.45001 111.175 5.07138 110.52 5.31907C110.342 5.38432 110.171 5.46866 110.011 5.5706C108.327 6.63756 106.659 8.42452 105.042 9.60797C85.3319 24.0336 61.4429 32.435 37.2467 35.0187C34.5681 35.3046 31.0928 35.8285 28.3651 35.8341C28.2324 42.3745 27.4493 48.9433 27.3124 55.5321C26.7492 82.6478 30.3482 110.099 40.074 135.516C41.2073 138.478 43.1991 141.859 43.956 144.91ZM101.749 180.608C96.1328 181.097 90.5909 181.141 85.0176 181.821C90.1546 187.56 103.764 195.361 110.877 198.292C112.997 197.329 116.201 195.983 118.086 194.774C123.356 191.655 133.288 185.978 137.385 181.546C126.094 180.773 113.076 179.997 101.749 180.608ZM165.637 194.817C166.985 194.703 175.667 192.577 177.274 192.04C178.334 191.795 180.539 191.453 181.181 190.662C180.517 189.285 169.239 187.105 167.28 186.3C166.938 188.198 166.127 193.268 165.637 194.817ZM167.869 198.112C169.77 198.683 171.886 199.442 173.74 199.942C182.866 202.333 192.224 203.728 201.652 204.1C205.496 204.222 209.239 203.608 213.104 203.855C211.172 201.522 202.788 189.635 201.741 187.254C203.589 184.05 207.238 180.275 209.699 177.409C210.721 176.222 212.906 173.596 213.937 172.558C214.342 172.032 214.506 171.896 214.647 171.254L214.484 171.005C208.229 170.963 205.591 170.623 199.561 170.043C197.938 169.822 195.487 169.445 193.92 168.957L192.001 181.062C191.595 183.776 191.397 186.785 190.577 189.398C190.228 190.504 189.765 191.611 188.799 192.308C186.34 194.086 171.412 197.579 167.869 198.112ZM44.4005 192.16C47.8942 193.033 52.6149 193.863 55.912 194.865C55.3308 192.006 54.8998 189.589 54.4072 186.751C54.1974 186.614 54.2628 186.6 54.0778 186.605C52.2067 186.938 41.2551 189.353 40.3198 190.573C40.481 191.484 43.5119 192.053 44.4005 192.16ZM27.9352 169.093C20.0899 170.374 14.6871 171.345 6.67464 170.859C8.84623 173.961 11.4899 176.851 13.896 179.762C15.3996 181.583 18.4957 184.914 19.4244 187.031C17.8487 191.482 14.2289 195.465 11.6413 199.42C10.6115 200.993 9.60028 202.049 8.90677 203.902C13.4101 203.264 15.5113 204.224 19.6517 204.04C27.8318 203.675 36.35 202.598 44.3261 200.773C47.7982 200.145 49.7424 199.638 52.9182 198.174C48.621 197.356 43.6308 195.519 39.0231 194.55C36.8375 193.955 32.8806 193.075 31.9897 190.953C30.0352 186.296 28.1895 173.998 27.9352 169.093Z" fill="#568673"/>
<path d="M106.594 104.43L106.987 104.749C107.65 106.598 107.214 119.484 107.347 122.062C107.457 124.202 106.682 126.855 104.961 128.258C104.242 128.932 102.473 130.137 101.451 130.186C92.2277 130.63 82.7782 130.285 73.536 130.356C69.7854 130.385 66.3755 126.983 66.0188 123.328C65.746 120.533 65.7158 117.763 65.6776 114.917C65.5862 110.364 65.5602 105.809 65.6 101.255C65.6396 93.8948 64.9837 85.5115 66.5433 78.3032C67.5798 73.513 74.2238 71.7931 74.5474 66.9716C72.4354 66.2559 70.5523 65.858 69.9579 63.4755C69.3811 61.1633 69.5631 58.9972 69.5816 56.6856C69.5789 52.5184 71.3956 51.008 75.5354 51.0458C83.5746 51.1193 91.8325 50.771 99.8508 51.1194C103.355 51.2717 104.244 55.5039 104.261 58.3687C104.289 62.8739 104.068 65.8271 99.0079 66.6216C99.2099 67.4948 99.312 67.8701 99.6996 68.8692C100.382 70.6278 107.041 75.0012 104.578 77.1237C102.279 79.1042 97.4009 72.4276 96.4746 70.6698C95.975 69.7221 96.0147 67.0729 95.5736 66.5627C94.131 66.3496 90.7526 66.4692 89.1427 66.4796C85.3488 66.5118 81.555 66.5209 77.761 66.5069C77.819 67.4003 77.7957 68.2973 77.6917 69.1865C77.3142 72.2086 75.2071 73.6577 73.0001 75.4082C70.7412 77.5771 68.8359 81.3082 69.7176 84.4825C70.0959 84.828 69.9423 84.7241 70.5778 84.7541C74.0482 84.5903 86.0202 84.4695 88.8953 85.0987C90.9176 89.237 89.2723 102.391 89.8316 107.732C90.0303 109.63 89.9925 115.172 88.7798 116.629C87.311 117.326 71.7881 117.317 69.5983 116.923C69.6105 119.605 69.0899 123.63 70.9888 125.496C71.3193 125.817 71.6665 126.121 72.0288 126.407C73.865 126.688 74.9275 126.651 76.7781 126.508C81.1787 126.168 85.6531 126.424 90.0621 126.338C93.4444 126.271 96.756 126.86 100.11 126.609C100.911 126.557 101.682 126.282 102.336 125.816C102.803 125.477 103.213 124.92 103.472 124.404C104.714 120.854 103.086 107.137 104.564 104.978C105.141 104.546 105.872 104.524 106.594 104.43ZM69.6227 113.393C71.6065 113.197 85.6112 113.495 86.1156 113.017C85.8122 107.717 86.0713 101.459 86.0785 96.1142C86.0807 94.4716 86.1531 89.8844 86.3214 88.392C84.238 88.4143 70.9172 88.6353 69.6018 88.3536C69.7608 96.2571 69.7872 105.491 69.6227 113.393ZM100.144 62.8648C100.226 60.1166 100.194 57.5073 100.157 54.7605C91.886 54.7011 81.7228 54.5089 73.4883 54.8516C72.9566 55.7052 73.2517 61.1982 73.2938 62.5448C74.5092 63.2238 96.5655 62.735 100.144 62.8648Z" fill="#568673"/>
<path d="M123.538 91.5427C123.876 91.0278 124.226 90.5204 124.587 90.0211C126.907 86.869 130.744 86.0254 134.419 86.9319C136.709 87.4969 138.325 88.7247 140.154 90.1094C143.833 92.9986 147.84 95.5957 151.495 98.5845C153.793 100.445 156.11 101.683 158.091 103.94C161.635 107.896 161.005 112.543 157.852 116.476C155.978 118.816 156.945 120.631 156.478 123.256C155.852 126.779 151.632 130.092 148.132 130.249C141.914 130.526 135.675 130.367 129.45 130.456C127.027 130.302 123.896 130.705 121.532 130.184C110.378 127.724 111.248 112.135 122.904 111.44C124.88 111.323 135.047 111.481 135.661 110.98C135.218 109.801 133.92 109.172 132.945 108.445C126.112 103.347 120.765 101.002 123.538 91.5427ZM128.571 126.348C129.953 126.385 132.216 126.458 133.568 126.667C133.478 122.757 133.513 118.822 133.416 114.933C130.244 115.05 126.886 114.881 123.627 114.963C117.978 115.371 115.556 120.934 119.496 125.213C121.189 127.051 126.003 126.302 128.571 126.348ZM148.7 126.303C150.085 125.767 150.981 125.363 151.804 124.199C153.795 121.386 152.873 116.706 149.46 115.522C145.891 114.285 140.75 115.196 137.11 114.96C137.056 118.818 137.039 122.675 137.06 126.532C140.463 126.462 144.909 126.572 148.178 126.307L148.7 126.303ZM136.627 106.236C137.052 105.781 137.562 105.26 137.953 104.788C139.663 102.261 141.723 99.738 143.695 97.3949C140.795 95.1653 136.296 91.5889 132.957 90.3077C132.386 90.0882 131.504 90.1489 130.89 90.192C129.372 90.7701 127.328 91.9035 126.701 93.4709C124.731 98.3883 130.099 101.378 133.29 103.907C134.367 104.759 135.552 105.538 136.627 106.236ZM146.22 99.6816C144.97 102.19 141.729 106.168 139.923 108.501C144.676 113.342 146.722 109.803 152.047 112.628C152.925 113.124 153.776 113.61 154.679 114.063C155.174 113.612 155.75 113.122 156.178 112.618C156.467 110.852 156.971 108.778 155.795 107.242C154.113 105.043 148.592 100.767 146.22 99.6816Z" fill="#568673"/>
<path d="M110.798 14.7229C113.486 15.5203 120.599 21.1979 123.576 22.8965C126.982 24.8399 130.36 26.7156 134.001 28.2775C136.077 29.2724 138.364 30.602 140.477 31.3754C143.966 32.652 147.532 34.0713 151.061 35.2054C153.404 36.261 156.281 36.9295 158.786 37.5816C164.648 39.1073 170.272 40.3469 176.271 41.1931C178.883 41.5615 181.792 41.9139 184.342 42.4602C185.133 42.6296 185.758 42.9675 185.942 43.7938C186.818 47.7062 186.989 53.7813 187.056 57.7514C187.32 74.3346 186.331 91.1989 182.462 107.373C181.919 109.65 181.61 112.249 180.964 114.472C179.312 120.018 177.691 125.63 175.398 130.953C174.489 133.061 173.873 135.257 172.975 137.35C171.583 140.595 168.167 139.259 169.387 135.924C171.677 129.657 174.242 123.461 176.045 117.028C179.343 106.056 181.112 94.8464 182.166 83.4563C182.372 81.2842 182.866 78.2281 182.795 76.0803C183.226 69.4217 183.459 62.3548 183.153 55.6931L182.866 46.3275C181.35 45.9721 179.547 45.7539 177.98 45.5081C160.885 42.7958 143.606 37.8224 128.139 29.9588C123.572 27.6368 114.557 22.1169 111.013 18.8837C91.1946 33.6277 68.1135 41.803 43.9731 45.4164C42.3952 45.6525 40.7071 45.8032 39.168 46.1703L38.9615 46.2207C38.1531 56.6674 38.0702 66.7038 38.9602 77.1515C39.2269 80.7215 39.2154 84.4317 39.6901 87.9833C40.8729 95.8985 42.1914 103.939 43.9605 111.75C44.7844 115.387 46.3014 119.661 47.3479 123.28C48.7293 128.057 52.3806 133.138 51.8985 138.339C51.8623 138.728 51.4255 138.894 51.1494 139.001C50.8358 138.961 50.5168 138.914 50.237 138.758C46.9952 136.944 40.932 114.909 39.7784 110.452C35.2452 92.9381 33.8206 69.374 34.8737 51.3419C34.9813 49.501 35.0378 44.3606 36.2011 43.0548C37.0169 42.139 41.1132 41.7899 42.3579 41.6251C47.7318 40.8605 53.0712 39.8687 58.3615 38.6525C60.7067 38.1068 62.8106 37.4419 65.2093 36.9357C67.5356 36.376 70.2005 35.4084 72.4636 34.5928C73.6866 34.1504 74.9238 33.679 76.1479 33.2575C84.674 30.3212 92.8297 25.966 100.571 21.3672C103.998 19.3309 107.146 16.4504 110.798 14.7229Z" fill="#568673"/>
<path d="M129.56 56.7052C131.376 54.7932 137.902 48.1106 139.846 46.9915C141.028 46.3122 142.364 45.9454 143.727 45.9263C147.793 45.8281 151.292 49.0187 151.319 53.2088C151.353 58.5664 145.43 62.0914 142.302 65.7954C141.787 66.4052 141.159 66.4954 140.869 67.3255C140.903 69.193 145.971 72.246 141.169 77.0469C139.996 78.2202 139.04 79.1036 137.125 79.1902C135.166 79.2787 133.137 76.6969 131.672 76.1519C131.087 76.2485 129.951 77.3059 129.665 77.5814C126.583 80.5526 123.019 84.2437 120.073 87.2405C115.313 92.0821 111.806 97.5251 105.092 99.5296C103.91 99.8824 101.297 102.997 99.1279 102.586C96.4575 102.575 95.5164 100.642 94.9563 98.4296C95.5613 96.194 95.9343 95.2817 97.4342 93.5071C98.5471 91.6524 98.8627 89.4579 100.096 87.7195C101.361 85.9365 103.431 84.4875 104.721 82.7303L104.844 82.5614C106.385 81.2232 110.086 77.341 111.605 75.7802C114.915 72.3331 118.286 68.9452 121.716 65.618C119.907 63.9868 118.732 63.027 117.832 60.7052C119.727 55.285 124.861 51.6486 129.56 56.7052ZM125.11 58.1367C123.35 58.498 123.133 58.5705 122.089 60.139C123.92 63.2047 129.272 67.8108 132.046 70.6387C134.759 73.3435 137.411 78.038 139.684 72.3684C136.663 68.2664 134.927 68.1676 138.923 63.6842C142.805 59.3283 148.075 57.6042 147.192 51.047C145.532 49.952 144.987 49.6119 142.968 49.8C137.605 51.8481 135.237 58.1996 130.237 60.717C129.142 61.2678 126.118 58.9113 125.11 58.1367ZM101.394 94.1019C100.739 95.2486 98.7716 97.7139 98.7587 98.6907C99.849 99.2657 102.696 96.414 103.796 95.8676C105.066 95.236 107.126 95.0713 108.073 94.0902C109.103 93.5565 127.625 74.5006 128.849 72.8996C128.171 71.9058 125.122 69.1601 124.107 68.0641C122.47 70.5203 118.344 74.1683 116.217 76.3752C113.595 78.9962 111.036 81.818 108.377 84.3935C104.755 87.9013 103.037 89.2017 101.394 94.1019Z" fill="#568673"/>
</svg>
