<svg width="197" height="215" viewBox="0 0 197 215" fill="none" xmlns="http://www.w3.org/2000/svg">
<g clip-path="url(#clip0_719_2993)">
<path d="M53.9555 0.112979C68.9345 -0.492521 84.1862 4.78148 94.791 15.5767C106.776 27.7775 110.36 45.4857 107.803 61.9797C106.781 68.574 104.992 75.1055 104.915 81.82C104.701 91.3152 108.763 101.766 118.132 105.581C120.37 106.492 123.471 106.081 125.244 107.882C126.967 111.5 121.099 113.004 118.663 114.151C113.795 116.444 107.138 117.232 101.857 116.176C98.254 115.454 94.9147 113.768 92.1942 111.299C78.432 98.6812 91.7843 73.8057 82.5403 61.4867C69.1375 43.6252 38.978 50.4872 24.9175 29.5042C23.5488 30.6005 20.3513 32.7737 20.6473 34.4837C22.6895 46.141 33.5318 53.3172 44.404 55.812C51.7125 57.489 56.5735 59.1585 61.5613 64.7815C62.0758 64.1305 62.6083 63.4942 63.1585 62.8732C70.2533 54.9705 79.7477 61.148 79.5157 70.8977C79.3067 79.6792 77.1137 83.6722 71.213 89.9315C71.5882 91.1637 72.0108 92.0767 72.5695 93.232C79.313 106.875 91.6708 119.825 106.434 124.649C127.078 131.395 149.232 127.496 156.924 105.106C153.184 104.506 149.443 103.492 146.181 101.584C135.124 95.1132 128.15 80.5285 125.15 68.4102C123.112 60.179 120.311 44.258 124.788 36.81C127.887 31.6542 131.943 30.1327 137.329 28.786C140.942 20.7517 152.374 23.558 151.289 31.6462C151.02 33.6057 149.968 35.3725 148.373 36.5432C144.342 39.5152 140.329 37.202 137.729 33.681C129.117 36.672 127.298 39.0632 127.357 48.3817C127.449 59.417 130.153 70.0135 134.616 79.9082C148.69 111.113 176.653 104.341 186.537 74.4322C190.001 63.948 193.692 51.1927 190.297 40.0317C189.205 36.4407 184.459 34.9427 181.324 33.7775C178.044 37.9517 172.73 40.0157 168.887 34.884C165.09 29.8127 169.781 22.5235 176.19 24.1572C179.047 24.8852 179.978 26.321 181.532 28.645C188.565 31.4895 194.685 33.1492 196.014 42.301C198.236 57.603 192.81 76.3517 184.803 89.3772C178.736 99.2465 172.712 102.922 161.737 105.225C160.61 109.046 159.842 111.873 157.714 115.304C148.978 129.385 134.296 133.152 118.619 132.244C110.702 131.326 102.489 129.296 95.5988 125.241C82.7245 117.664 69.8185 103.488 65.767 89.032C67.6625 85.3605 71.635 82.8905 73.235 78.7107C74.6265 75.0752 76.2798 66.2027 71.483 64.484C65.4658 62.4607 65.7908 70.7362 62.4163 72.777C60.388 74.0037 58.1368 68.75 56.9538 67.2285C56.1548 66.221 55.2443 65.307 54.2398 64.5042C51.3503 62.1902 46.2665 61.4552 42.6913 60.4552C40.544 59.8472 38.4313 59.123 36.3628 58.2855C25.8375 54.0495 20.5283 48.2002 16.0903 37.8315C14.064 43.2235 12.8843 47.662 13.0613 53.558C13.2685 60.4642 16.605 65.252 14.3728 72.1425C12.535 77.8145 8.169 81.6202 5.796 86.3535C9.07475 87.7615 11.5038 88.0645 14.325 90.4192C14.7465 92.7635 14.697 95.435 14.6805 97.8237C17.5585 99.9387 17.1145 100.813 17.0168 104.266C23.7018 109.565 18.719 117.924 23.2108 119.196C33.2365 122.034 44.733 108.191 55.1755 113.182C60.3133 115.638 62.1403 120.943 62.0063 126.213C62.2213 137.167 54.539 145.202 49.9065 154.545C45.6658 162.966 43.56 174.068 46.8818 183.21C55.5635 207.102 84.127 214.004 106.384 206.588C118.009 202.714 127.84 194.867 134.832 184.956C136.383 182.758 138.303 180.085 139.444 177.726C136.223 176.535 133.303 174.651 130.89 172.208C127.523 168.762 125.244 164.125 124.512 159.353C121.076 136.932 148.812 121.86 165.047 139.031C169.452 143.733 171.848 149.968 171.723 156.409C171.553 162.337 168.661 168.777 164.275 172.749C158.028 178.407 152.212 179.238 144.22 178.957C141.112 185.029 137.341 190.721 132.57 195.63C121.053 207.52 105.258 214.309 88.7053 214.485C55.2375 214.895 29.4075 185.888 44.6353 153.61C48.817 144.746 57.1405 135.954 57.047 125.934C56.5518 110.447 42.5455 119.485 34.7585 122.56C30.517 124.235 24.8783 125.696 20.5413 123.563C15.88 121.272 15.5953 114.801 15.5365 110.213C15.1635 109.878 14.7938 109.539 14.427 109.196C11.8008 106.739 11.6058 105.772 11.4955 102.355C8.05975 99.631 9.29475 96.9442 9.62625 92.9775C-8.14275 88.541 6.03375 79.726 9.42975 71.1215C11.0355 67.0532 8.87325 61.4932 8.39675 56.995C8.006 53.256 8.08575 49.4827 8.6345 45.7635C9.351 40.9137 11.2095 36.2182 14.1563 32.2845C16.0965 29.6942 20.0245 27.5767 22.7188 25.5805C22.0328 21.6195 21.7153 17.1145 23.712 13.4772C29.424 3.07173 43.2875 0.612229 53.9555 0.112979ZM95.181 107.226C100.398 113.14 109.784 112.552 116.544 110.042C109.818 107.058 105.159 102.581 102.455 95.636C97.9582 84.5155 100.933 73.9862 102.694 62.7655C104.685 50.0737 103.542 35.95 96.1543 25.0465C86.494 10.788 69.9665 4.44073 53.08 5.10848C43.9825 5.70973 26.1378 8.62773 27.1265 21.2377C27.1908 22.0082 27.288 22.7757 27.4185 23.5377C40.0043 19.4832 53.822 21.4205 65.4715 27.4055C76.197 32.7962 84.3288 42.2432 88.0635 53.6517C91.4037 64.1082 91.3877 71.9667 90.7925 82.7502C90.329 91.1535 89.2903 100.405 95.181 107.226ZM143.863 167.614C137.003 164.333 133.622 156.751 137.081 149.731C138.449 146.906 140.891 144.746 143.861 143.731C147.082 142.659 150.783 143.138 153.806 144.602C159.79 148.352 162.182 155.674 158.286 162.087C156.118 165.658 152.543 166.97 148.714 168.139C147.925 170.271 147.172 172.416 146.456 174.574C151.058 173.975 154.675 173.742 158.609 170.982C164.762 166.666 167.454 160.123 166.436 152.704C165.744 147.805 163.117 143.387 159.142 140.441C155.821 137.953 151.408 136.435 147.251 136.594C141.184 137.285 137.173 139.161 133.296 143.938C126.958 151.748 128.107 163.882 136.135 170.07C137.877 171.413 139.678 172.316 141.408 173.528C142.186 171.612 143.003 169.476 143.863 167.614ZM143.009 28.4447C142.439 29.4347 142.044 30.5522 142.315 31.6952C143.164 33.1365 144.22 32.9252 145.697 32.7485C147.686 30.0005 145.96 28.4767 143.009 28.4447ZM175.596 33.1332C177.735 31.0595 177.035 28.4415 173.627 28.4607C171.34 30.5995 171.89 33.279 175.596 33.1332ZM83.6708 55.1947C83.0323 53.6027 82.3737 51.936 81.6615 50.38C74.139 33.9465 53.0943 23.8342 35.4205 26.597C33.248 26.8257 31.586 27.1702 29.4385 27.6187C43.361 44.2305 62.791 40.3375 80.162 52.1252C81.408 53.1635 82.4898 54.0797 83.6708 55.1947ZM148.893 162.709C152.911 162.133 155.713 158.425 155.171 154.403C154.628 150.381 150.943 147.548 146.917 148.057C142.842 148.573 139.969 152.31 140.518 156.38C141.067 160.449 144.828 163.292 148.893 162.709Z" fill="#568673"/>
</g>
<defs>
<clipPath id="clip0_719_2993">
<rect width="197" height="215" fill="white"/>
</clipPath>
</defs>
</svg>
