<svg width="32" height="32" viewBox="0 0 32 32" fill="none" xmlns="http://www.w3.org/2000/svg">
<path d="M5.03679 15.9231C3.77276 13.7191 3.16242 11.9193 2.79441 10.095C2.25012 7.39677 3.49571 4.76108 5.55913 3.0793C6.43122 2.36852 7.43093 2.61136 7.94663 3.53654L9.11087 5.62522C10.0337 7.28076 10.4951 8.10853 10.4036 8.98613C10.312 9.86372 9.68978 10.5785 8.44526 12.008L5.03679 15.9231ZM5.03679 15.9231C7.5953 20.3844 11.6104 24.4017 16.0768 26.9632M16.0768 26.9632C18.2809 28.2272 20.0807 28.8375 21.905 29.2056C24.6032 29.7498 27.2389 28.5043 28.9207 26.4408C29.6314 25.5687 29.3886 24.569 28.4634 24.0533L26.3748 22.8891C24.7192 21.9663 23.8914 21.5049 23.0138 21.5964C22.1362 21.6879 21.4215 22.3102 19.992 23.5547L16.0768 26.9632Z" stroke="#FDFCF8" stroke-width="2" stroke-linejoin="round"/>
</svg>
