<svg width="402" height="271" viewBox="0 0 402 271" fill="none" xmlns="http://www.w3.org/2000/svg">
<path d="M199.677 90.5394C201.498 88.7006 203.228 86.8254 204.907 84.8535C213.582 74.6379 222.881 64.8272 232.653 55.6465C251.243 37.967 271.575 22.2149 293.336 8.63092C296.639 6.55509 305.175 1.0975 308.683 0.605303C314.023 -0.143654 322.73 0.118229 328.43 0.150225C339.913 0.214614 351.633 0.0186929 363.069 0.391591C357.448 17.2064 348.062 32.261 338.053 46.7294C314.833 76.8828 290.022 97.2808 254.415 111.823C165.625 148.084 68.6354 84.082 35.6797 0.574081C48.5257 0.479671 61.3473 0.661791 74.2036 0.457171C94.6873 -0.296922 92.728 0.983323 109.253 11.0986C135.062 27.1455 158.767 46.3505 179.819 68.2686C186.228 74.9425 193.25 83.4784 199.677 90.5394Z" fill="#7F7967"/>
<path d="M16.496 131.196C41.1535 130.873 37.7951 131.769 58.9389 142.557C108.195 167.23 150.29 204.137 181.193 249.746C184.92 255.217 192.472 264.859 194.735 270.224C189.099 270.054 183.86 269.635 178.234 269.173C106.92 263.101 31.8204 219.625 5.27784 150.643C2.97448 144.655 0.595294 138.263 0 131.856C4.73786 131.232 11.5437 131.287 16.496 131.196Z" fill="#7F7967"/>
<path d="M371.269 133.109C380.288 132.666 392.782 132.927 401.942 133.081C378.581 193.728 324.768 242.118 262.888 260.969C253.364 263.868 243.796 265.531 233.992 267.143C225.112 268.541 213.471 269.853 204.508 270.086C207.581 263.9 211.48 259.065 215.47 253.475C221.77 244.508 228.359 235.747 235.225 227.206C266.234 188.656 305.751 156.304 352.253 138.477C358.874 135.941 364.151 133.875 371.269 133.109Z" fill="#7F7967"/>
<path d="M75.0088 135.61C75.0088 135.61 68.1856 133.71 68.2022 132.335C70.0971 130.878 77.1083 131.312 79.7561 131.391C90.8921 131.205 89.7592 131.371 99.2559 136.87C135.797 158.019 173.04 185.967 199.061 219.559L199.452 219.204C207.483 211.786 214.407 202.329 222.525 194.638C243.374 174.883 265.562 156.439 290.417 141.887C300.474 135.997 306.261 132.323 318.246 132.73C321.864 132.876 325.487 133.046 329.105 133.236C287.596 153.496 258.42 173.864 225.634 207.298C216.378 216.739 207.834 227.531 199.215 236.372C194.479 229.885 186.67 221.211 181.183 215.313C155.61 187.812 125.998 164.367 93.3666 145.782C88.6366 143.048 79.7996 137.696 75.0088 135.61Z" fill="#7F7967"/>
<path d="M116.966 0.664881C120.072 0.0391704 114.799 0.542619 118.161 0.665865C120.266 0.742894 133.359 0.0794429 135.296 0.93624C129.654 -1.55958 137.306 1.82543 135.296 0.93624C157.576 13.2206 182.329 37.3646 199.993 55.3936C204.907 49.8586 209.912 44.4954 215.217 39.3313C223.615 31.1592 253.846 4.26706 264.148 1.15668C270.421 -0.737045 278.613 0.258801 285.171 0.35321C279.483 3.24357 273.601 7.44142 268.375 11.1503C242.872 29.2497 219.89 51.6011 199.787 75.4914C185.527 59.0053 174.318 45.4763 157.203 31.7987C153.153 28.5615 115.567 -0.0773631 115.877 0.735982L116.966 0.664881Z" fill="#7F7967"/>
<path d="M199.487 177.979L209.237 168.83C221.277 157.612 240.747 139.63 256.52 132.567C258.345 131.75 268.181 132.251 270.998 132.35C272.373 132.37 273.637 132.216 274.798 132.777C274.016 133.527 274.103 133.346 273.261 133.816C269.528 135.917 265.245 137.803 261.217 140.42C240.25 154.045 217.271 175.083 199.104 192.46C195.6 188.621 188.983 182.581 185.047 178.982C166.173 161.763 145.723 146.354 123.965 132.962C128.035 132.765 132.135 132.603 136.162 132.476C141.698 132.109 144.575 134.179 148.833 137.114C167.206 149.782 183.649 162.127 199.487 177.979Z" fill="#7F7967"/>
<path d="M174.054 0.568789C190.477 0.359428 208.829 0.605125 225.306 0.775774L225.298 1.10681C224.97 14.8152 222.785 19.192 213.08 28.4323C208.912 31.7161 203.722 36.4405 199.602 39.9487C184.306 24.1254 175.744 24.7361 174.054 0.568789Z" fill="#7F7967"/>
</svg>
