<svg width="92" height="36" viewBox="0 0 92 36" fill="none" xmlns="http://www.w3.org/2000/svg">
<g clip-path="url(#clip0_709_1525)">
<path d="M13.8134 13.8988C13.8134 12.6913 13.5618 11.6141 13.064 10.6998C12.5644 9.77874 11.8273 9.03603 10.8683 8.48372C9.63337 7.81305 7.69622 7.47171 5.10752 7.47171H0V27.2316H2.4804V9.729H4.97651C6.93114 9.729 8.41064 9.95542 9.37136 10.4031C9.98272 10.6913 10.4613 11.1355 10.7897 11.7204C11.1251 12.3156 11.2945 13.0395 11.2945 13.8731C11.2945 15.8834 10.4281 17.1132 8.64995 17.6329C7.77831 17.8714 6.28658 17.9914 4.21318 17.9914H3.69265L10.6884 27.2316H13.7802L8.2447 19.988C9.96351 19.741 11.3138 19.1287 12.2605 18.1664C13.2928 17.1167 13.8169 15.681 13.8169 13.8988H13.8134Z" fill="#FDFCF8"/>
<path d="M25.3682 7.47171L16.7357 27.2316H19.3646L22.2275 20.7444H31.0154L33.8522 27.2316H36.5736L27.9149 7.47171H25.3682ZM30.0303 18.4871H23.2057L26.6538 10.5763L30.032 18.4871H30.0303Z" fill="#FDFCF8"/>
<path d="M73.8025 14.036C73.8025 12.8285 73.5509 11.7513 73.0531 10.8371C72.5535 9.91598 71.8164 9.17327 70.8574 8.62095C69.6225 7.95029 67.6836 7.60895 65.0966 7.60895H59.9908V27.3688H62.4712V9.86795H64.9674C66.922 9.86795 68.4015 10.0944 69.3622 10.5421C69.9736 10.8302 70.4522 11.2745 70.7806 11.8594C71.1159 12.4546 71.2854 13.1784 71.2854 14.012C71.2854 16.0223 70.419 17.2522 68.6408 17.7702C67.7692 18.0086 66.2757 18.1304 64.204 18.1304H63.6835L70.6793 27.3705H73.771L68.2355 20.127C69.9544 19.88 71.3046 19.2676 72.2513 18.3053C73.2837 17.2556 73.8077 15.8199 73.8077 14.0378L73.8025 14.036Z" fill="#FDFCF8"/>
<path d="M89.2311 2.16467L87.4144 1.13208L84.4869 6.00515L86.2494 7.0446L89.2311 2.16467Z" fill="#FDFCF8"/>
<path d="M92 11.1331V8.99142H78.3177V27.3705H92V25.2288H80.6199V19.3568H91.7397V17.2046H80.6199V11.1331H92Z" fill="#FDFCF8"/>
<path d="M47.6255 0H48.4517V36H47.6255" fill="#FDFCF8"/>
</g>
<defs>
<clipPath id="clip0_709_1525">
<rect width="92" height="36" fill="white"/>
</clipPath>
</defs>
</svg>
