<svg preserveAspectRatio="none" overflow="visible" style="display: block;" width="24" height="20" viewBox="0 0 24 20" fill="none" xmlns="http://www.w3.org/2000/svg">
<g id="vk">
<path id="Vector" d="M14 8.74857V5.05285C14 4.22025 13.8489 4.05286 13.0196 4.05286L10.6696 4.0001C9.93806 4.0001 9.5723 4.0001 9.42446 4.23724C9.27662 4.47437 9.44019 4.79868 9.76735 5.4473C9.94905 5.80755 10.0462 6.06845 10.0462 6.47222V9.13154C10.0462 9.9725 10.0462 10.393 9.72664 10.5177C9.40712 10.6425 9.14158 10.3602 8.6105 9.79566C7.30883 8.4119 6.63136 6.6843 6.18601 4.80138C6.09378 4.41142 6.04766 4.21643 5.91001 4.10827C5.77235 4.0001 5.5763 4.0001 5.18419 4.0001H2.98492C2.50242 4.0001 2.26117 4.0001 2.11047 4.1707C1.95977 4.34129 1.98899 4.5589 2.04743 4.99411C2.57467 8.92071 6.028 15.3595 12.4074 15.9737C13.5372 16.0825 14 15.7771 14 14.5391C14 13.8374 13.9851 12.7029 14.8682 12.5542C15.3306 12.4764 15.6421 12.6406 16.1594 13.0745C17.0555 13.826 17.5247 14.7434 17.8517 15.4406C18.0686 15.9032 18.2299 16 18.7396 16H20.8138C21.8618 16 22.1473 15.7442 21.6805 14.7605C21.0895 13.5151 20.2484 12.5257 19.4836 11.867C18.8484 11.3199 18.5308 11.0463 18.5131 10.845C18.4953 10.6436 18.7284 10.3586 19.1944 9.78847C20.0948 8.68709 21.3202 6.9578 21.8922 5.12282C22.1756 4.21377 21.909 4.0001 20.988 4.0001H19.1249C18.2224 4.0001 18.223 3.96887 18.01 4.99279C17.6642 6.65426 16.5317 8.25114 15.4679 9.33819C14.9633 9.85386 14.6581 10.1645 14.3432 10.0379C14.0284 9.91137 14 9.52377 14 8.74857Z" stroke="white" stroke-width="1.5" stroke-linecap="round" stroke-linejoin="round"/>
</g>
</svg>
